<svg width="28" height="24" viewBox="0 0 28 24" fill="none" xmlns="http://www.w3.org/2000/svg">
<g clip-path="url(#clip0_304_2162)">
<path d="M1.99219 4.99219V21C1.99219 21.1875 2.03906 21.3516 2.13281 21.4922C2.22656 21.6484 2.35156 21.7734 2.50781 21.8672C2.66406 21.9609 2.82812 22.0078 3 22.0078C3.1875 22.0078 3.35938 21.9609 3.51562 21.8672L8.27344 19.0078C8.27344 19.0078 8.83594 19.0078 9.96094 19.0078C11.0703 19.0078 12.2969 19.0078 13.6406 19.0078C14.9844 19.0078 16.2109 19.0078 17.3203 19.0078C18.4453 19.0078 19.0078 19.0078 19.0078 19.0078C19.8359 19.0078 20.5391 18.7109 21.1172 18.1172C21.7109 17.5391 22.0078 16.8359 22.0078 16.0078C22.0078 15.2891 22.0078 14.4453 22.0078 13.4766C22.0078 12.5078 22.0078 11.5156 22.0078 10.5C22.0078 9.48438 22.0078 8.49219 22.0078 7.52344C22.0078 6.55469 22.0078 5.71094 22.0078 4.99219C22.0078 4.60156 21.9297 4.22656 21.7734 3.86719C21.6172 3.49219 21.3984 3.16406 21.1172 2.88281C20.8359 2.60156 20.5078 2.38281 20.1328 2.22656C19.7734 2.07031 19.3984 1.99219 19.0078 1.99219C18.1328 1.99219 17.0781 1.99219 15.8438 1.99219C14.5938 1.99219 13.3125 1.99219 12 1.99219C10.6875 1.99219 9.40625 1.99219 8.15625 1.99219C6.92188 1.99219 5.86719 1.99219 4.99219 1.99219C4.16406 1.99219 3.45312 2.28906 2.85938 2.88281C2.28125 3.46094 1.99219 4.16406 1.99219 4.99219ZM4.00781 4.99219C4.00781 4.72656 4.10156 4.5 4.28906 4.3125C4.49219 4.10938 4.72656 4.00781 4.99219 4.00781H19.0078C19.1328 4.00781 19.2578 4.03125 19.3828 4.07812C19.5078 4.125 19.6172 4.19531 19.7109 4.28906C19.8047 4.38281 19.875 4.49219 19.9219 4.61719C19.9688 4.74219 19.9922 4.86719 19.9922 4.99219C19.9922 4.99219 19.9922 5.57031 19.9922 6.72656C19.9922 7.86719 19.9922 9.125 19.9922 10.5C19.9922 11.875 19.9922 13.1328 19.9922 14.2734C19.9922 15.4297 19.9922 16.0078 19.9922 16.0078C19.9922 16.2734 19.8906 16.5078 19.6875 16.7109C19.5 16.8984 19.2734 16.9922 19.0078 16.9922C18.0859 16.9922 17 16.9922 15.75 16.9922C14.4844 16.9922 13.2734 16.9922 12.1172 16.9922C10.9766 16.9922 10.0078 16.9922 9.21094 16.9922C8.39844 16.9922 7.99219 16.9922 7.99219 16.9922C7.91406 16.9922 7.82812 17.0078 7.73438 17.0391C7.64062 17.0547 7.55469 17.0859 7.47656 17.1328L4.00781 19.2422V4.99219Z" fill="#5E656E"/>
</g>
<defs>
<clipPath id="clip0_304_2162">
<rect width="28" height="24" fill="white"/>
</clipPath>
</defs>
</svg>
