<svg width="28" height="24" viewBox="0 0 28 24" fill="none" xmlns="http://www.w3.org/2000/svg">
<g clip-path="url(#clip0_304_2157)">
<path d="M12 3.79688C11.75 3.625 11.5156 3.45312 11.2969 3.28125C11.0781 3.10938 10.8594 2.95312 10.6406 2.8125C10.2812 2.5625 9.89062 2.36719 9.46875 2.22656C9.0625 2.07031 8.57031 1.99219 7.99219 1.99219C7.08594 1.99219 6.25781 2.14844 5.50781 2.46094C4.77344 2.77344 4.14844 3.23438 3.63281 3.84375C3.11719 4.42188 2.71094 5.14062 2.41406 6C2.13281 6.84375 1.99219 7.84375 1.99219 9C1.99219 10.1875 2.22656 11.3438 2.69531 12.4688C3.14844 13.5938 3.71875 14.6562 4.40625 15.6562C5.10938 16.6406 5.875 17.5391 6.70312 18.3516C7.51562 19.1641 8.28125 19.8438 9 20.3906C9.45312 20.7344 9.85938 21.0234 10.2188 21.2578C10.5938 21.4922 10.9062 21.6641 11.1562 21.7734C11.3438 21.8672 11.5078 21.9297 11.6484 21.9609C11.7891 21.9922 11.9062 22.0078 12 22.0078C12.0938 22.0078 12.2109 21.9922 12.3516 21.9609C12.4922 21.9297 12.6562 21.8672 12.8438 21.7734C13.0938 21.6641 13.3984 21.4922 13.7578 21.2578C14.1328 21.0234 14.5469 20.7344 15 20.3906C15.7188 19.8438 16.4844 19.1641 17.2969 18.3516C18.125 17.5391 18.8828 16.6406 19.5703 15.6562C20.2734 14.6562 20.8516 13.5938 21.3047 12.4688C21.7734 11.3438 22.0078 10.1875 22.0078 9C22.0078 7.84375 21.8594 6.84375 21.5625 6C21.2812 5.14062 20.8828 4.42188 20.3672 3.84375C19.8516 3.23438 19.2188 2.77344 18.4688 2.46094C17.7344 2.14844 16.9141 1.99219 16.0078 1.99219C15.4297 1.99219 14.9297 2.07031 14.5078 2.22656C14.1016 2.36719 13.7188 2.5625 13.3594 2.8125C13.1406 2.95312 12.9219 3.10938 12.7031 3.28125C12.4844 3.45312 12.25 3.625 12 3.79688ZM12 19.9453C11.8438 19.8672 11.5938 19.7188 11.25 19.5C10.9062 19.2969 10.5625 19.0625 10.2188 18.7969C9.59375 18.3281 8.92188 17.7422 8.20312 17.0391C7.46875 16.3359 6.78906 15.5625 6.16406 14.7188C5.55469 13.875 5.03906 12.9688 4.61719 12C4.21094 11.0312 4.00781 10.0312 4.00781 9C4.00781 8.15625 4.10156 7.41406 4.28906 6.77344C4.47656 6.11719 4.75781 5.57812 5.13281 5.15625C5.47656 4.76562 5.89062 4.47656 6.375 4.28906C6.85938 4.10156 7.39844 4.00781 7.99219 4.00781C8.41406 4.00781 8.76562 4.07812 9.04688 4.21875C9.32812 4.34375 9.60156 4.5 9.86719 4.6875C10.1016 4.85938 10.3438 5.04688 10.5938 5.25C10.8594 5.45312 11.1484 5.65625 11.4609 5.85938C11.6328 5.95312 11.8125 6 12 6C12.1875 6 12.3672 5.95312 12.5391 5.85938C12.8516 5.65625 13.1328 5.45312 13.3828 5.25C13.6484 5.04688 13.8984 4.85938 14.1328 4.6875C14.3984 4.5 14.6719 4.34375 14.9531 4.21875C15.2344 4.07812 15.5859 4.00781 16.0078 4.00781C16.6016 4.00781 17.1406 4.10156 17.625 4.28906C18.1094 4.47656 18.5234 4.76562 18.8672 5.15625C19.2422 5.57812 19.5234 6.11719 19.7109 6.77344C19.8984 7.41406 19.9922 8.15625 19.9922 9C19.9922 10.0312 19.7891 11.0312 19.3828 12C18.9609 12.9688 18.4375 13.875 17.8125 14.7188C17.2031 15.5625 16.5312 16.3359 15.7969 17.0391C15.0781 17.7422 14.4062 18.3281 13.7812 18.7969C13.4375 19.0625 13.0938 19.2969 12.75 19.5C12.4062 19.7188 12.1562 19.8672 12 19.9453Z" fill="#5E656E"/>
</g>
<defs>
<clipPath id="clip0_304_2157">
<rect width="28" height="24" fill="white"/>
</clipPath>
</defs>
</svg>
