<svg width="24" height="24" viewBox="0 0 24 24" fill="none" xmlns="http://www.w3.org/2000/svg">
<g clip-path="url(#clip0_304_2161)">
<path d="M4.99219 4.99219V21C4.99219 21.1719 5.03125 21.3281 5.10938 21.4688C5.20312 21.625 5.32812 21.75 5.48438 21.8438C5.625 21.9375 5.78125 21.9844 5.95312 21.9844C6.125 22 6.28906 21.9688 6.44531 21.8906L11.5547 19.3359C11.6953 19.2734 11.8438 19.2422 12 19.2422C12.1562 19.2422 12.3047 19.2734 12.4453 19.3359C12.4453 19.3359 12.7109 19.4688 13.2422 19.7344C13.7734 20 14.3594 20.2891 15 20.6016C15.6406 20.9297 16.2266 21.2266 16.7578 21.4922C17.2891 21.7578 17.5547 21.8906 17.5547 21.8906C17.7109 21.9688 17.875 22 18.0469 21.9844C18.2188 21.9844 18.375 21.9375 18.5156 21.8438C18.6719 21.75 18.7891 21.625 18.8672 21.4688C18.9609 21.3281 19.0078 21.1719 19.0078 21C19.0078 21 19.0078 20.3828 19.0078 19.1484C19.0078 17.9297 19.0078 16.4688 19.0078 14.7656C19.0078 13.0469 19.0078 11.2812 19.0078 9.46875C19.0078 7.65625 19.0078 6.16406 19.0078 4.99219C19.0078 4.16406 18.7109 3.46094 18.1172 2.88281C17.5391 2.28906 16.8359 1.99219 16.0078 1.99219H7.99219C7.16406 1.99219 6.45312 2.28906 5.85938 2.88281C5.28125 3.46094 4.99219 4.16406 4.99219 4.99219ZM7.00781 4.99219C7.00781 4.72656 7.10156 4.5 7.28906 4.3125C7.49219 4.10938 7.72656 4.00781 7.99219 4.00781C7.99219 4.00781 8.41406 4.00781 9.25781 4.00781C10.0859 4.00781 11 4.00781 12 4.00781C13 4.00781 13.9141 4.00781 14.7422 4.00781C15.5859 4.00781 16.0078 4.00781 16.0078 4.00781C16.2734 4.00781 16.5 4.10938 16.6875 4.3125C16.8906 4.5 16.9922 4.72656 16.9922 4.99219V19.3828L13.3359 17.5547C12.9141 17.3359 12.4688 17.2266 12 17.2266C11.5312 17.2266 11.0859 17.3359 10.6641 17.5547L7.00781 19.3828V4.99219Z" fill="#5E656E"/>
</g>
<defs>
<clipPath id="clip0_304_2161">
<rect width="24" height="24" fill="white"/>
</clipPath>
</defs>
</svg>
