<svg width="24" height="24" viewBox="0 0 24 24" fill="none" xmlns="http://www.w3.org/2000/svg">
<g clip-path="url(#clip0_304_2156)">
<path d="M21.7031 11.2266C21.6406 11.1328 21.5703 11.0234 21.4922 10.8984C21.4141 10.7734 21.3203 10.6328 21.2109 10.4766C21.0078 10.1797 20.75 9.84375 20.4375 9.46875C20.125 9.07812 19.7578 8.67969 19.3359 8.27344C18.9297 7.88281 18.4766 7.49219 17.9766 7.10156C17.4609 6.71094 16.8906 6.35938 16.2656 6.04688C15.6562 5.73438 14.9922 5.48438 14.2734 5.29688C13.5703 5.09375 12.8125 4.99219 12 4.99219C11.1875 4.99219 10.4297 5.09375 9.72656 5.29688C9.00781 5.48438 8.33594 5.73438 7.71094 6.04688C7.10156 6.35938 6.53906 6.71094 6.02344 7.10156C5.52344 7.49219 5.07031 7.88281 4.66406 8.27344C4.24219 8.67969 3.875 9.07812 3.5625 9.46875C3.25 9.84375 2.99219 10.1797 2.78906 10.4766C2.67969 10.6328 2.58594 10.7734 2.50781 10.8984C2.42969 11.0234 2.35938 11.1328 2.29688 11.2266C2.26562 11.2734 2.24219 11.3125 2.22656 11.3438C2.21094 11.375 2.19531 11.4062 2.17969 11.4375L2.13281 11.5312C2.03906 11.6719 1.99219 11.8281 1.99219 12C1.99219 12.1719 2.03906 12.3281 2.13281 12.4688L2.17969 12.5625C2.19531 12.5938 2.21094 12.625 2.22656 12.6562C2.24219 12.6875 2.26562 12.7266 2.29688 12.7734C2.35938 12.8672 2.42969 12.9766 2.50781 13.1016C2.58594 13.2266 2.67969 13.3672 2.78906 13.5234C2.99219 13.8203 3.25 14.1641 3.5625 14.5547C3.875 14.9297 4.24219 15.3203 4.66406 15.7266C5.07031 16.1172 5.52344 16.5078 6.02344 16.8984C6.53906 17.2891 7.10156 17.6406 7.71094 17.9531C8.33594 18.2656 9.00781 18.5156 9.72656 18.7031C10.4297 18.9062 11.1875 19.0078 12 19.0078C12.8125 19.0078 13.5703 18.9062 14.2734 18.7031C14.9922 18.5156 15.6562 18.2656 16.2656 17.9531C16.8906 17.6406 17.4609 17.2891 17.9766 16.8984C18.4766 16.5078 18.9297 16.1172 19.3359 15.7266C19.7578 15.3203 20.125 14.9297 20.4375 14.5547C20.75 14.1641 21.0078 13.8203 21.2109 13.5234C21.3203 13.3672 21.4141 13.2266 21.4922 13.1016C21.5703 12.9766 21.6406 12.8672 21.7031 12.7734C21.7344 12.7266 21.7578 12.6875 21.7734 12.6562C21.7891 12.625 21.8047 12.5938 21.8203 12.5625L21.8672 12.4688C21.9609 12.3281 22.0078 12.1719 22.0078 12C22.0078 11.8281 21.9609 11.6719 21.8672 11.5312L21.8203 11.4375C21.8047 11.4062 21.7891 11.375 21.7734 11.3438C21.7578 11.3125 21.7344 11.2734 21.7031 11.2266ZM4.42969 12.3516C4.38281 12.2891 4.33594 12.2266 4.28906 12.1641C4.24219 12.1016 4.20312 12.0469 4.17188 12C4.20312 11.9531 4.24219 11.8984 4.28906 11.8359C4.33594 11.7734 4.38281 11.7109 4.42969 11.6484C4.60156 11.3828 4.82031 11.0859 5.08594 10.7578C5.36719 10.4141 5.6875 10.0703 6.04688 9.72656C6.76562 9.00781 7.625 8.375 8.625 7.82812C9.625 7.28125 10.75 7.00781 12 7.00781C13.25 7.00781 14.375 7.28125 15.375 7.82812C16.375 8.375 17.2344 9.00781 17.9531 9.72656C18.3125 10.0703 18.625 10.4141 18.8906 10.7578C19.1719 11.0859 19.3984 11.3828 19.5703 11.6484C19.6172 11.7109 19.6641 11.7734 19.7109 11.8359C19.7578 11.8984 19.7969 11.9531 19.8281 12C19.7969 12.0469 19.7578 12.1016 19.7109 12.1641C19.6641 12.2266 19.6172 12.2891 19.5703 12.3516C19.3984 12.6172 19.1719 12.9219 18.8906 13.2656C18.625 13.5938 18.3125 13.9297 17.9531 14.2734C17.2344 14.9922 16.375 15.625 15.375 16.1719C14.375 16.7188 13.25 16.9922 12 16.9922C10.75 16.9922 9.625 16.7188 8.625 16.1719C7.625 15.625 6.76562 14.9922 6.04688 14.2734C5.6875 13.9297 5.36719 13.5938 5.08594 13.2656C4.82031 12.9219 4.60156 12.6172 4.42969 12.3516ZM10.9922 12C10.9922 11.7188 11.0859 11.4844 11.2734 11.2969C11.4766 11.0938 11.7188 10.9922 12 10.9922C12.2812 10.9922 12.5156 11.0938 12.7031 11.2969C12.9062 11.4844 13.0078 11.7188 13.0078 12C13.0078 12.2812 12.9062 12.5234 12.7031 12.7266C12.5156 12.9141 12.2812 13.0078 12 13.0078C11.7188 13.0078 11.4766 12.9141 11.2734 12.7266C11.0859 12.5234 10.9922 12.2812 10.9922 12ZM12 9C11.1719 9 10.4609 9.29688 9.86719 9.89062C9.28906 10.4688 9 11.1719 9 12C9 12.8281 9.28906 13.5391 9.86719 14.1328C10.4609 14.7109 11.1719 15 12 15C12.8281 15 13.5312 14.7109 14.1094 14.1328C14.7031 13.5391 15 12.8281 15 12C15 11.1719 14.7031 10.4688 14.1094 9.89062C13.5312 9.29688 12.8281 9 12 9Z" fill="#0D0D0D"/>
</g>
<defs>
<clipPath id="clip0_304_2156">
<rect width="24" height="24" fill="white"/>
</clipPath>
</defs>
</svg>
